:SAMPLES-PER-SECOND 30
:FULLY-SPECIFIED
:DEGREES
513
root  2.68809 40.5031 0.0291074 14.5153 -88.1669 -13.0593
RightUpLeg  -1.95146 -11.0997 -7.69578
RightLeg  15.7755 0.58907 0.337497
RightFoot  -7.8418 -0.285276 7.57804
RightToes  0.00048216 0.542163 -0.142577
Spine  7.44166 1.83713 1.43408
Spine1  -3.94464 2.26704 -2.72399
HEad  -2.51739 -9.7901 0.924889
LeftShoulder1  1.83471 -4.40145 -16.4267
LeftArm  -17.0031 21.0484 -8.93395
LeftForeArm  14.9857 -10.0195 -1.88296
LeftHand  -0.25398 0.0180481 5.50724
RightShoulder  1.44834 2.62588 16.9942
RightArm  -21.9573 -17.3048 10.9288
RightForeArm  -12.2631 9.5003 3.63273
RightHand  -3.77015 11.0686 -26.5819
LeftUpLeg  3.47545 4.70238 -0.980862
LeftLeg  4.56587 12.1264 -4.70952
LeftFoot  -10.4061 0.047701 1.80424
LeftToes  1.06248e-005 4.65856e-005 -8.18499e-006
514
root  2.76121 40.5935 0.126448 17.9536 -88.7934 -16.111
RightUpLeg  0.60958 -10.4706 -8.10215
RightLeg  9.78916 -2.13524 1.45612
RightFoot  -7.97076 -0.194641 4.84992
RightToes  0.00048216 0.542163 -0.142577
Spine  5.63214 2.13032 2.46291
Spine1  -4.13188 2.74192 -3.58195
HEad  -1.72928 -10.7571 0.520961
LeftShoulder1  1.46751 -3.61101 -13.5936
LeftArm  -19.0439 20.5021 -6.45613
LeftForeArm  15.5373 -12.7222 -1.62131
LeftHand  -0.25398 0.0180481 5.50724
RightShoulder  1.1159 1.91972 13.6554
RightArm  -21.0504 -15.3429 7.62915
RightForeArm  -13.5131 8.78041 3.81648
RightHand  -3.85306 11.2272 -26.8905
LeftUpLeg  3.78306 4.27941 -1.38545
LeftLeg  2.68597 13.177 -5.06343
LeftFoot  -9.30013 0.0176426 2.1611
LeftToes  1.06248e-005 4.65856e-005 -8.18499e-006
515
root  2.85538 40.657 0.185082 17.3211 -89.543 -15.0585
RightUpLeg  1.75133 -9.53174 -8.597
RightLeg  6.15924 -4.7061 2.71709
RightFoot  -7.10067 -0.177949 3.47759
RightToes  0.00048216 0.542163 -0.142577
Spine  4.03594 2.34546 3.0311
Spine1  -4.3071 3.05418 -4.21342
HEad  -1.16118 -11.4303 0.218954
LeftShoulder1  1.12972 -2.70223 -10.9172
LeftArm  -22.0927 19.8859 -4.55167
LeftForeArm  16.6156 -15.1353 -1.50732
LeftHand  -0.25398 0.0180481 5.50724
RightShoulder  0.859291 1.34299 10.5036
RightArm  -20.5501 -12.9756 5.33358
RightForeArm  -13.9013 8.27782 3.99142
RightHand  -4.00046 11.5355 -27.3833
LeftUpLeg  3.87434 3.8133 -1.88692
LeftLeg  1.13597 14.2615 -5.38851
LeftFoot  -8.39244 -0.00965845 2.33659
LeftToes  1.06248e-005 4.65856e-005 -8.18499e-006
516
root  2.99816 40.6925 0.214113 -168.018 -89.6362 170.592
RightUpLeg  1.88704 -9.87446 -8.94702
RightLeg  4.5657 -4.80852 3.30029
RightFoot  -6.24795 -0.198194 3.4942
RightToes  0.00048216 0.542163 -0.142577
Spine  3.11946 2.50943 3.6417
Spine1  -4.79213 3.30788 -5.01501
HEad  -0.743228 -12.0564 0.113359
LeftShoulder1  0.868 -1.88591 -8.58028
LeftArm  -25.9319 19.267 -3.04102
LeftForeArm  18.2155 -17.3855 -1.75547
LeftHand  -0.25398 0.0180481 5.50724
RightShoulder  0.667224 0.84401 7.84471
RightArm  -20.3832 -10.6456 3.73221
RightForeArm  -14.1033 8.24499 4.20664
RightHand  -4.20332 11.9684 -28.0199
LeftUpLeg  3.69169 3.54366 -2.22955
LeftLeg  0.25571 15.253 -5.67678
LeftFoot  -7.84549 -0.0328875 2.61509
LeftToes  1.06248e-005 4.65856e-005 -8.18499e-006
517
root  3.19172 40.7068 0.2157 -177.292 -88.8581 179.883
RightUpLeg  1.51338 -9.90658 -8.93556
RightLeg  4.28298 -4.14923 3.41982
RightFoot  -5.70871 -0.209145 3.46415
RightToes  0.00048216 0.542163 -0.142577
Spine  3.01434 2.60335 4.33741
Spine1  -5.46286 3.47004 -5.8236
HEad  -0.539092 -12.5318 0.0698372
LeftShoulder1  0.687295 -1.22056 -6.82794
LeftArm  -30.3645 18.7954 -1.90805
LeftForeArm  20.2624 -19.661 -2.40234
LeftHand  -0.25398 0.0180481 5.50724
RightShoulder  0.537478 0.440041 5.91627
RightArm  -20.3035 -8.3907 2.42641
RightForeArm  -14.0124 8.46904 4.44483
RightHand  -4.38947 12.3951 -28.5308
LeftUpLeg  3.36687 3.58629 -2.23545
LeftLeg  0.207626 16.0732 -5.79767
LeftFoot  -7.65096 -0.0493628 2.92866
LeftToes  1.06248e-005 4.65856e-005 -8.18499e-006
518
root  3.41472 40.7148 0.183415 177.508 -88.376 -175.245
RightUpLeg  0.977139 -9.77238 -8.70854
RightLeg  4.96668 -3.63943 3.35131
RightFoot  -5.3465 -0.193321 2.99576
RightToes  0.00048216 0.542163 -0.142577
Spine  3.38338 2.53176 4.49158
Spine1  -5.9248 3.38111 -5.90982
HEad  -0.694145 -12.6779 -0.0198341
LeftShoulder1  0.568925 -0.695944 -5.69429
LeftArm  -34.4681 18.4891 -1.33556
LeftForeArm  22.0619 -21.6791 -3.17748
LeftHand  -0.25398 0.0180481 5.50724
RightShoulder  0.456139 0.155471 4.60035
RightArm  -20.2484 -6.20878 1.37105
RightForeArm  -12.9056 8.60888 4.59985
RightHand  -4.51076 12.7451 -28.7414
LeftUpLeg  3.18372 3.72616 -2.08314
LeftLeg  0.570472 16.5801 -5.69635
LeftFoot  -7.54466 -0.0573128 3.11514
LeftToes  1.06248e-005 4.65856e-005 -8.18499e-006
519
root  3.64433 40.7199 0.116842 178.134 -88.4796 -176.426
RightUpLeg  0.521862 -9.81359 -8.54264
RightLeg  6.25286 -3.80356 3.16142
RightFoot  -5.18108 -0.180851 2.69719
RightToes  0.00048216 0.542163 -0.142577
Spine  3.87442 2.25843 3.79541
Spine1  -6.05863 2.99396 -5.08982
HEad  -1.10413 -12.6665 -0.116699
LeftShoulder1  0.519632 -0.497572 -5.06086
LeftArm  -36.6036 17.9933 -1.21838
LeftForeArm  22.4672 -22.5502 -3.52208
LeftHand  -0.25398 0.0180481 5.50724
RightShoulder  0.394574 -0.100905 3.61117
RightArm  -20.3046 -4.34415 0.759362
RightForeArm  -10.9862 8.5153 4.60573
RightHand  -4.59027 13.0075 -28.8258
LeftUpLeg  3.21158 3.74603 -2.04072
LeftLeg  0.949367 16.631 -5.4511
LeftFoot  -7.35786 -0.0691958 3.3539
LeftToes  1.06248e-005 4.65856e-005 -8.18499e-006
520
root  3.86176 40.7191 0.0277282 165.921 -89.2337 -164.814
RightUpLeg  0.327136 -10.2262 -8.48495
RightLeg  7.5001 -4.33841 2.81688
RightFoot  -5.23872 -0.180438 2.66821
RightToes  0.00048216 0.542163 -0.142577
Spine  4.33028 1.83394 2.68856
Spine1  -6.04847 2.41259 -3.93466
HEad  -1.38957 -12.8102 -0.193424
LeftShoulder1  0.552174 -0.821076 -4.8206
LeftArm  -35.8543 16.8986 -1.16535
LeftForeArm  21.0141 -21.4423 -3.09565
LeftHand  -0.25398 0.0180481 5.50724
RightShoulder  0.335199 -0.435479 2.85122
RightArm  -20.4783 -2.96993 0.644557
RightForeArm  -9.33993 8.07676 4.49532
RightHand  -4.67349 13.2075 -29.0212
LeftUpLeg  3.29654 3.68023 -2.11164
LeftLeg  1.30297 16.1802 -5.18258
LeftFoot  -7.12719 -0.0941303 3.77691
LeftToes  1.06248e-005 4.65856e-005 -8.18499e-006
